PathFileType	4	(X/Y/Z)	C:/Users/opensim2020/Desktop/walking_exp_matlab/subject06_walking11_run.trc																																																																																																																																								
DataRate	CameraRate	NumFrames	NumMarkers	Units	OrigDataRate	OrigDataStartFrame	OrigNumFrames																																																																																																																																				
100	100	6	46	mm	100	199	106																																																																																																																																				
Frame#	Time	LKNE			RKNE			RFRM			RWRA			RWRB			RELB			RUPA			RSHO			LWRA			RFIN			RFHD			CLAV			RASI			RTHI			LSHO			LTHI			RBHD			C7			LTIB			LANK			LTOE			LBHD			RTIB			RBAK			LHEE			RANK			STRN			RHEE			RTOE			T10			LUPA			LFHD			LPSI			RPSI			LASI			LFRM			LWRB			LFIN			LELB			*39			*40			*41			*42			*43			*44			*45		
		X1	Y1	Z1	X2	Y2	Z2	X3	Y3	Z3	X4	Y4	Z4	X5	Y5	Z5	X6	Y6	Z6	X7	Y7	Z7	X8	Y8	Z8	X9	Y9	Z9	X10	Y10	Z10	X11	Y11	Z11	X12	Y12	Z12	X13	Y13	Z13	X14	Y14	Z14	X15	Y15	Z15	X16	Y16	Z16	X17	Y17	Z17	X18	Y18	Z18	X19	Y19	Z19	X20	Y20	Z20	X21	Y21	Z21	X22	Y22	Z22	X23	Y23	Z23	X24	Y24	Z24	X25	Y25	Z25	X26	Y26	Z26	X27	Y27	Z27	X28	Y28	Z28	X29	Y29	Z29	X30	Y30	Z30	X31	Y31	Z31	X32	Y32	Z32	X33	Y33	Z33	X34	Y34	Z34	X35	Y35	Z35	X36	Y36	Z36	X37	Y37	Z37	X38	Y38	Z38	X39	Y39	Z39	X40	Y40	Z40	X41	Y41	Z41	X42	Y42	Z42	X43	Y43	Z43	X44	Y44	Z44	X45	Y45	Z45	X46	Y46	Z46
																																																																																																																																											
14	0.13	-1423.44922	433.3255	111.41879	-1178.72363	524.14661	362.44205	-1331.85913	1081.27466	506.76224	-1229.77966	1059.91309	407.89316	-1241.91846	1004.23169	442.2908	-1392.13135	1161.20105	541.02399	-1345.27112	1256.61353	499.36725	-1211.16809	1360.06079	384.48575	-1141.67969	1105.13391	108.02125	-1164.9928	1005.59875	413.7066	-1090.46033	1583.82556	308.67239	-1157.51062	1309.77393	236.01166	-1260.14111	926.03473	332.27145	-1237.92603	634.48016	390.63351	-1185.21863	1363.58826	77.29583	-1377.4115	590.77228	78.40102	-1227.35107	1552.41003	300.17651	-1246.39209	1409.82129	223.526	-1664.97839	350.25034	108.83302	-1831.51025	295.93381	137.62204	-1835.25049	152.21707	158.20107	-1222.151	1556.42322	170.89836	-1238.59082	263.69446	351.61377	-1360.65613	1272.43835	283.9325	-1849.573	339.42813	175.11136	-1287.84924	88.71342	294.74606	-1164.06738	1128.81177	230.64543	-1331.11938	75.40623	253.72957	-1137.396	31.13289	279.14496	-1368.40686	1111.03967	203.09123	-1243.08008	1208.35193	-36.65498	-1082.94727	1593.11487	176.9028	-1387.08374	967.13379	123.51442	-1400.08777	978.85626	289.20969	-1246.05945	899.96741	117.17789	-1195.71875	1059.25879	1.2	-1131.66846	1036.48181	96.64996	-1065.88867	1070.19348	146.32301	-1283.36633	1117.27502	-77.57851	NaN	NaN	NaN	-1179.93103	1645.20935	231.20857	NaN	NaN	NaN	NaN	NaN	NaN	NaN	NaN	NaN	NaN	NaN	NaN	NaN	NaN	NaN
15	0.14	-1367.2876	424.06625	111.77388	-1152.25	514.64111	361.90903	-1284.60168	1067.64868	507.99289	-1184.36926	1050.9342	406.72522	-1194.09106	994.39307	440.48572	-1346.58545	1145.89209	544.04419	-1304.05103	1242.72876	503.27744	-1175.43884	1354.12878	386.46198	-1111.0293	1092.05383	104.86816	-1117.67395	998.37146	411.28964	-1058.07556	1581.63647	308.65344	-1122.56091	1305.4718	236.33459	-1225.51013	922.34045	334.03134	-1208.24744	627.95898	391.47107	-1153.26257	1359.70142	77.55509	-1330.70251	582.05011	78.95592	-1194.51953	1547.90967	301.6496	-1213.00403	1405.05981	225.27391	-1606.75122	346.42117	108.68481	-1774.18762	299.34094	136.52078	-1777.43201	156.5056	152.45824	-1190.896	1552.13953	172.33601	-1220.99329	258.88318	351.85635	-1326.7605	1267.15479	286.89999	-1792.60901	342.09912	175.18059	-1282.03674	86.89137	295.57089	-1128.62683	1123.98535	230.369	-1329.55188	73.816	254.60503	-1135.48901	31.08713	279.30905	-1332.97314	1105.78955	203.66872	-1214.6886	1205.07678	-35.93326	-1052.1748	1591.11719	176.8576	-1351.98242	961.24463	121.79876	-1366.10156	974.37988	287.9946	-1210.15515	895.34601	117.62352	-1169.09094	1051.46973	-1.72182	-1103.974	1023.3587	91.7032	-1035.79138	1052.88684	140.28856	-1256.86389	1115.50769	-76.47289	NaN	NaN	NaN	-1149.45947	1641.49023	232.24567	NaN	NaN	NaN	NaN	NaN	NaN	NaN	NaN	NaN	NaN	NaN	NaN	NaN	NaN	NaN
16	0.15	-1310.44482	416.81995	111.86449	-1127.94653	503.96686	362.32785	-1236.45996	1054.38452	508.10492	-1138.31238	1042.03247	405.23944	-1145.50256	985.12439	438.09479	-1299.89001	1130.43445	546.65564	-1261.88037	1228.01233	507.31744	-1139.49597	1348.58582	388.55695	-1081.65527	1079.46899	100.56326	-1069.90942	991.71985	407.89728	-1025.48291	1579.78235	308.43927	-1087.34167	1301.44556	236.38844	-1191.64343	918.10553	335.01648	-1180.68933	619.474	390.4346	-1121.73535	1356.12842	76.99533	-1283.74109	574.67279	78.98525	-1161.66211	1543.97058	303.23758	-1179.64087	1400.76563	227.00095	-1543.77905	344.76114	107.75156	-1714.18335	300.73126	135.60771	-1714.28149	158.30994	147.99615	-1159.66516	1548.29993	173.83704	-1201.59631	253.66457	351.18564	-1292.9812	1262.02258	289.59207	-1733.52551	342.65695	175.04568	-1277.12939	85.42239	295.95877	-1093.41516	1119.32239	229.82008	-1328.89319	75.30325	256.27298	-1135.51611	31.00273	278.96307	-1298.16577	1100.6731	204.54582	-1187.82349	1201.18579	-34.88457	-1021.60895	1589.49048	176.72771	-1317.74072	955.6864	120.39973	-1332.3479	969.92407	287.25281	-1174.43103	890.70178	118.11467	-1144.19104	1043.91333	-5.0815	-1078.0741	1010.85211	85.37318	-1007.27515	1035.49414	132.77719	-1231.97815	1113.99817	-75.53411	NaN	NaN	NaN	-1118.8689	1638.17871	233.29286	NaN	NaN	NaN	NaN	NaN	NaN	NaN	NaN	NaN	NaN	NaN	NaN	NaN	NaN	NaN
17	0.16	-1252.21155	412.27936	112.02947	-1103.44922	494.513	361.69498	-1187.10046	1042.62207	507.267	-1091.10999	1034.88684	401.08936	-1096.06885	977.33649	434.69397	-1251.77563	1115.58423	548.29156	-1218.24365	1213.43225	511.04343	-1102.55811	1343.53137	390.62228	-1053.51953	1068.36536	94.99729	-1021.46088	986.38379	403.35147	-992.63776	1578.28357	308.04858	-1052.36719	1298.28992	236.01884	-1158.09619	913.45953	335.72839	-1153.47217	610.33215	390.42398	-1090.65247	1353.06458	76.03977	-1235.58386	571.17804	78.43522	-1128.3772	1540.46191	304.68845	-1145.74268	1397.66199	228.43527	-1484.33752	340.39584	107.44719	-1652.11548	300.1991	134.86961	-1647.84802	158.49788	144.23685	-1128.27856	1545.10938	175.23778	-1187.36963	248.50089	349.77548	-1258.9989	1257.3147	291.93802	-1672.89648	341.13727	174.76863	-1277.21777	86.90623	296.26425	-1058.15271	1115.68469	229.34282	-1328.63074	77.29131	256.21796	-1135.82739	30.90359	278.789	-1263.61877	1095.93091	205.78581	-1161.74133	1198.85999	-35.33705	-990.69684	1588.27222	176.12497	-1284.01868	951.08917	119.83201	-1298.54956	966.10785	287.02313	-1139.86414	886.83441	118.81687	-1121.24243	1037.87903	-8.99865	-1053.84912	999.8808	78.31028	-980.52454	1019.89404	124.24255	-1208.28906	1113.52515	-74.76549	NaN	NaN	NaN	-1087.96094	1635.45435	234.30717	NaN	NaN	NaN	NaN	NaN	NaN	NaN	NaN	NaN	NaN	NaN	NaN	NaN	NaN	NaN
18	0.17	-1191.91248	410.8999	112.25813	-1080.77527	484.88135	361.35822	-1136.34058	1033.6864	504.90408	-1043.50525	1030.38831	397.15494	-1046.03613	971.95905	430.1713	-1202.04492	1102.70044	548.02789	-1172.8009	1201.33276	513.3064	-1065.34521	1339.58801	392.08411	-1026.90637	1059.69873	88.81947	-972.60425	983.87115	397.97253	-959.59998	1577.33398	307.49091	-1017.82281	1296.45313	235.37155	-1124.58728	908.72302	336.20459	-1127.88281	601.03253	389.86093	-1059.75281	1350.89282	75.17273	-1186.37854	570.81226	77.31591	-1094.78857	1537.68884	305.88904	-1111.86121	1396.31787	229.63396	-1418.44043	341.00851	106.82256	-1583.10913	301.32736	131.36201	-1579.61353	155.98253	141.36707	-1096.672	1542.55627	176.47208	-1179.58252	244.10541	349.46011	-1224.5061	1253.7981	294.32773	-1610.91577	337.44598	174.47243	-1276.84058	87.70154	295.07922	-1023.09229	1113.27148	228.58792	-1328.33521	79.17619	254.60434	-1135.9873	30.73117	278.49988	-1229.15662	1092.62036	207.31792	-1137.10461	1198.82642	-35.30844	-959.59259	1587.44788	175.58841	-1250.54602	948.25348	120.59126	-1264.52246	963.19952	287.5459	-1105.2251	884.07104	119.02094	-1099.14111	1034.84265	-13.36165	-1031.08032	991.49713	70.49344	-955.0871	1006.79163	114.32554	-1185.65894	1115.16064	-74.14572	NaN	NaN	NaN	-1056.62854	1633.28699	235.14543	NaN	NaN	NaN	NaN	NaN	NaN	NaN	NaN	NaN	NaN	NaN	NaN	NaN	NaN	NaN
19	0.18	-1131.03479	412.1499	112.74046	-1062.52844	476.17047	361.43234	-1084.83728	1028.11182	501.20233	-995.83478	1029.92529	391.63174	-995.82318	970.37592	424.36914	-1151.84839	1094.07434	546.42267	-1127.58899	1194.18054	512.76935	-1028.01965	1337.27649	392.59052	-1001.32275	1054.5907	82.11854	-923.73163	985.72406	391.25394	-926.38879	1577.19946	306.93506	-983.41113	1295.74231	234.45834	-1090.33923	904.4549	336.46921	-1103.80933	594.0722	389.92758	-1028.91272	1350.35327	74.87183	-1136.76624	571.77209	75.94384	-1060.8894	1535.81042	306.85785	-1077.44739	1395.94666	230.58449	-1354.1864	340.2431	106.29909	-1518.1228	297.24313	130.93774	-1508.45703	152.57474	139.24547	-1064.51917	1540.94092	177.52818	-1173.92627	240.28032	348.95349	-1189.5564	1251.50488	297.07098	-1547.81738	331.85748	174.31593	-1275.55688	87.78198	294.14728	-988.19348	1112.10693	227.39502	-1327.63892	81.2448	253.54765	-1136.5769	30.56547	278.33017	-1193.97229	1090.97302	209.0312	-1113.41174	1202.4436	-34.91002	-928.15125	1587.43188	174.81732	-1216.37988	947.29779	121.82558	-1229.52747	961.64111	288.92178	-1070.17346	882.474	118.72115	-1077.74646	1034.98071	-17.93574	-1008.87469	987.09552	62.34643	-930.97278	998.11475	103.92639	-1164.13684	1119.88184	-73.50047	NaN	NaN	NaN	-1024.92041	1631.93359	235.82478	NaN	NaN	NaN	NaN	NaN	NaN	NaN	NaN	NaN	NaN	NaN	NaN	NaN	NaN	NaN
